<?xml version="1.0" encoding="iso-8859-1"?>
<!-- Generator: Adobe Illustrator 16.0.0, SVG Export Plug-In . SVG Version: 6.00 Build 0)  -->
<!DOCTYPE svg PUBLIC "-//W3C//DTD SVG 1.1//EN" "http://www.w3.org/Graphics/SVG/1.1/DTD/svg11.dtd">
<svg version="1.1" id="Capa_1" xmlns="http://www.w3.org/2000/svg" xmlns:xlink="http://www.w3.org/1999/xlink" x="0px" y="0px"
	 width="612px" height="612px" viewBox="0 0 612 612" style="enable-background:new 0 0 612 612;" xml:space="preserve">
<g>
	<g id="_x31__30_">
		<g>
			<path d="M421.267,173.425c-9.142-5.278-20.847-2.142-26.125,7L272.837,392.272l-68.429-63.112
				c-7.229-7.707-19.316-8.108-27.024-0.88c-7.707,7.229-8.109,19.316-0.879,27.043l87.439,80.65
				c7.229,7.707,19.316,8.108,27.023,0.88c2.333-2.181,137.317-237.284,137.317-237.284
				C433.545,190.409,430.408,178.704,421.267,173.425z M306,0C136.992,0,0,136.992,0,306s136.992,306,306,306s306-136.992,306-306
				S475.008,0,306,0z M306,573.75C158.125,573.75,38.25,453.875,38.25,306C38.25,158.125,158.125,38.25,306,38.25
				c147.875,0,267.75,119.875,267.75,267.75C573.75,453.875,453.875,573.75,306,573.75z"/>
		</g>
	</g>
</g>
<g>
</g>
<g>
</g>
<g>
</g>
<g>
</g>
<g>
</g>
<g>
</g>
<g>
</g>
<g>
</g>
<g>
</g>
<g>
</g>
<g>
</g>
<g>
</g>
<g>
</g>
<g>
</g>
<g>
</g>
</svg>
